<mxfile host="Electron" agent="Mozilla/5.0 (Windows NT 10.0; Win64; x64) AppleWebKit/537.36 (KHTML, like Gecko) draw.io/24.7.17 Chrome/128.0.6613.36 Electron/32.0.1 Safari/537.36" version="24.7.17">
  <diagram name="Page-1" id="kkflHRJkbuxvvdrmPZgk">
    <mxGraphModel dx="2150" dy="2135" grid="1" gridSize="10" guides="1" tooltips="1" connect="1" arrows="1" fold="1" page="1" pageScale="1" pageWidth="850" pageHeight="1100" math="0" shadow="0">
      <root>
        <mxCell id="0" />
        <mxCell id="1" parent="0" />
        <mxCell id="dtfhshL-D1OWp4Bj5PZu-5" value="" style="edgeStyle=orthogonalEdgeStyle;rounded=0;orthogonalLoop=1;jettySize=auto;html=1;exitX=1;exitY=0.5;exitDx=0;exitDy=0;entryX=0;entryY=0.5;entryDx=0;entryDy=0;" parent="1" source="dtfhshL-D1OWp4Bj5PZu-15" target="C1_euyFeqPWgibXLm8NW-5" edge="1">
          <mxGeometry relative="1" as="geometry">
            <mxPoint x="465.5" y="160" as="sourcePoint" />
            <mxPoint x="580" y="190" as="targetPoint" />
          </mxGeometry>
        </mxCell>
        <mxCell id="dtfhshL-D1OWp4Bj5PZu-14" value="" style="edgeStyle=orthogonalEdgeStyle;rounded=0;orthogonalLoop=1;jettySize=auto;html=1;" parent="1" source="dtfhshL-D1OWp4Bj5PZu-8" target="dtfhshL-D1OWp4Bj5PZu-13" edge="1">
          <mxGeometry relative="1" as="geometry" />
        </mxCell>
        <mxCell id="dtfhshL-D1OWp4Bj5PZu-8" value="Input username&lt;div&gt;&lt;span style=&quot;background-color: initial;&quot;&gt;&amp;nbsp;dan password&lt;/span&gt;&lt;br&gt;&lt;/div&gt;" style="shape=parallelogram;perimeter=parallelogramPerimeter;whiteSpace=wrap;html=1;fixedSize=1;" parent="1" vertex="1">
          <mxGeometry x="365" y="-120" width="120" height="60" as="geometry" />
        </mxCell>
        <mxCell id="dtfhshL-D1OWp4Bj5PZu-9" value="" style="endArrow=classic;html=1;rounded=0;exitX=0.5;exitY=1;exitDx=0;exitDy=0;" parent="1" source="dtfhshL-D1OWp4Bj5PZu-15" target="dtfhshL-D1OWp4Bj5PZu-8" edge="1">
          <mxGeometry width="50" height="50" relative="1" as="geometry">
            <mxPoint x="425.5" y="200" as="sourcePoint" />
            <mxPoint x="450" y="190" as="targetPoint" />
          </mxGeometry>
        </mxCell>
        <mxCell id="dtfhshL-D1OWp4Bj5PZu-10" value="tidak" style="text;html=1;align=center;verticalAlign=middle;resizable=0;points=[];autosize=1;strokeColor=none;fillColor=none;" parent="1" vertex="1">
          <mxGeometry x="452.5" y="-290" width="50" height="30" as="geometry" />
        </mxCell>
        <mxCell id="dtfhshL-D1OWp4Bj5PZu-12" value="" style="endArrow=classic;html=1;rounded=0;entryX=0;entryY=0;entryDx=0;entryDy=0;" parent="1" target="dtfhshL-D1OWp4Bj5PZu-8" edge="1">
          <mxGeometry width="50" height="50" relative="1" as="geometry">
            <mxPoint x="340" y="-111" as="sourcePoint" />
            <mxPoint x="370" y="270" as="targetPoint" />
          </mxGeometry>
        </mxCell>
        <mxCell id="dtfhshL-D1OWp4Bj5PZu-13" value="username/&lt;div&gt;&lt;span style=&quot;background-color: initial;&quot;&gt;password&lt;/span&gt;&lt;/div&gt;&lt;div&gt;&lt;span style=&quot;background-color: initial;&quot;&gt;&amp;nbsp;benar&lt;/span&gt;&lt;/div&gt;" style="rhombus;whiteSpace=wrap;html=1;" parent="1" vertex="1">
          <mxGeometry x="378" y="-30" width="95" height="90" as="geometry" />
        </mxCell>
        <mxCell id="dtfhshL-D1OWp4Bj5PZu-16" value="ya" style="text;html=1;align=center;verticalAlign=middle;resizable=0;points=[];autosize=1;strokeColor=none;fillColor=none;" parent="1" vertex="1">
          <mxGeometry x="385" y="-220" width="40" height="30" as="geometry" />
        </mxCell>
        <mxCell id="yA7HZ91JMAjYLebNQA0N-108" style="edgeStyle=elbowEdgeStyle;rounded=0;orthogonalLoop=1;jettySize=auto;html=1;exitX=0.5;exitY=1;exitDx=0;exitDy=0;" parent="1" source="dtfhshL-D1OWp4Bj5PZu-21" edge="1">
          <mxGeometry relative="1" as="geometry">
            <mxPoint x="950" y="-90" as="targetPoint" />
          </mxGeometry>
        </mxCell>
        <mxCell id="dtfhshL-D1OWp4Bj5PZu-21" value="buat username&lt;div&gt;dan password&lt;/div&gt;" style="shape=parallelogram;perimeter=parallelogramPerimeter;whiteSpace=wrap;html=1;fixedSize=1;" parent="1" vertex="1">
          <mxGeometry x="890" y="-190" width="120" height="70" as="geometry" />
        </mxCell>
        <mxCell id="yA7HZ91JMAjYLebNQA0N-27" style="edgeStyle=elbowEdgeStyle;rounded=0;orthogonalLoop=1;jettySize=auto;html=1;exitX=0.5;exitY=1;exitDx=0;exitDy=0;entryX=0.5;entryY=0;entryDx=0;entryDy=0;" parent="1" source="dtfhshL-D1OWp4Bj5PZu-24" target="yA7HZ91JMAjYLebNQA0N-24" edge="1">
          <mxGeometry relative="1" as="geometry" />
        </mxCell>
        <mxCell id="dtfhshL-D1OWp4Bj5PZu-24" value="start" style="ellipse;whiteSpace=wrap;html=1;" parent="1" vertex="1">
          <mxGeometry x="370.75" y="-900" width="109.5" height="70" as="geometry" />
        </mxCell>
        <mxCell id="dtfhshL-D1OWp4Bj5PZu-25" value="" style="endArrow=classic;html=1;rounded=0;exitX=0;exitY=0.5;exitDx=0;exitDy=0;edgeStyle=orthogonalEdgeStyle;entryX=0.5;entryY=1;entryDx=0;entryDy=0;" parent="1" source="dtfhshL-D1OWp4Bj5PZu-13" target="dtfhshL-D1OWp4Bj5PZu-34" edge="1">
          <mxGeometry width="50" height="50" relative="1" as="geometry">
            <mxPoint x="400" y="340" as="sourcePoint" />
            <mxPoint x="190" y="425" as="targetPoint" />
          </mxGeometry>
        </mxCell>
        <mxCell id="dtfhshL-D1OWp4Bj5PZu-27" value="tidak" style="text;html=1;align=center;verticalAlign=middle;resizable=0;points=[];autosize=1;strokeColor=none;fillColor=none;" parent="1" vertex="1">
          <mxGeometry x="335.5" y="20" width="50" height="30" as="geometry" />
        </mxCell>
        <mxCell id="dtfhshL-D1OWp4Bj5PZu-28" value="" style="endArrow=classic;html=1;rounded=0;exitX=0.5;exitY=1;exitDx=0;exitDy=0;entryX=0.5;entryY=0;entryDx=0;entryDy=0;" parent="1" source="dtfhshL-D1OWp4Bj5PZu-13" target="dtfhshL-D1OWp4Bj5PZu-38" edge="1">
          <mxGeometry width="50" height="50" relative="1" as="geometry">
            <mxPoint x="400" y="440" as="sourcePoint" />
            <mxPoint x="426" y="520" as="targetPoint" />
          </mxGeometry>
        </mxCell>
        <mxCell id="dtfhshL-D1OWp4Bj5PZu-29" value="ya" style="text;html=1;align=center;verticalAlign=middle;resizable=0;points=[];autosize=1;strokeColor=none;fillColor=none;" parent="1" vertex="1">
          <mxGeometry x="425" y="50" width="40" height="30" as="geometry" />
        </mxCell>
        <mxCell id="dtfhshL-D1OWp4Bj5PZu-32" value="" style="endArrow=classic;html=1;rounded=0;entryX=0;entryY=0;entryDx=0;entryDy=0;" parent="1" target="dtfhshL-D1OWp4Bj5PZu-21" edge="1">
          <mxGeometry width="50" height="50" relative="1" as="geometry">
            <mxPoint x="870" y="-180" as="sourcePoint" />
            <mxPoint x="450" y="290" as="targetPoint" />
          </mxGeometry>
        </mxCell>
        <mxCell id="dtfhshL-D1OWp4Bj5PZu-35" style="edgeStyle=orthogonalEdgeStyle;rounded=0;orthogonalLoop=1;jettySize=auto;html=1;exitX=1;exitY=0.5;exitDx=0;exitDy=0;entryX=0;entryY=0.5;entryDx=0;entryDy=0;" parent="1" source="dtfhshL-D1OWp4Bj5PZu-34" target="dtfhshL-D1OWp4Bj5PZu-15" edge="1">
          <mxGeometry relative="1" as="geometry" />
        </mxCell>
        <mxCell id="dtfhshL-D1OWp4Bj5PZu-34" value="username/password salah,&lt;div&gt;&amp;nbsp;silahkan coba lagi&lt;/div&gt;" style="shape=parallelogram;perimeter=parallelogramPerimeter;whiteSpace=wrap;html=1;fixedSize=1;" parent="1" vertex="1">
          <mxGeometry x="120" y="-290" width="145" height="60" as="geometry" />
        </mxCell>
        <mxCell id="dtfhshL-D1OWp4Bj5PZu-37" value="" style="endArrow=classic;html=1;rounded=0;exitX=1;exitY=1;exitDx=0;exitDy=0;" parent="1" source="dtfhshL-D1OWp4Bj5PZu-34" edge="1">
          <mxGeometry width="50" height="50" relative="1" as="geometry">
            <mxPoint x="400" y="340" as="sourcePoint" />
            <mxPoint x="290" y="-237" as="targetPoint" />
          </mxGeometry>
        </mxCell>
        <mxCell id="dtfhshL-D1OWp4Bj5PZu-54" style="edgeStyle=orthogonalEdgeStyle;rounded=0;orthogonalLoop=1;jettySize=auto;html=1;exitX=0.5;exitY=1;exitDx=0;exitDy=0;entryX=0.5;entryY=0;entryDx=0;entryDy=0;" parent="1" source="dtfhshL-D1OWp4Bj5PZu-38" target="dtfhshL-D1OWp4Bj5PZu-53" edge="1">
          <mxGeometry relative="1" as="geometry" />
        </mxCell>
        <mxCell id="yA7HZ91JMAjYLebNQA0N-48" style="edgeStyle=elbowEdgeStyle;rounded=0;orthogonalLoop=1;jettySize=auto;html=1;exitX=1;exitY=1;exitDx=0;exitDy=0;" parent="1" source="dtfhshL-D1OWp4Bj5PZu-38" edge="1">
          <mxGeometry relative="1" as="geometry">
            <mxPoint x="530" y="182" as="targetPoint" />
          </mxGeometry>
        </mxCell>
        <mxCell id="dtfhshL-D1OWp4Bj5PZu-38" value="Selamat datang di&lt;div&gt;sistem pendataan&amp;nbsp;&lt;span style=&quot;background-color: initial;&quot;&gt;hewan Kebun Jur-Asyik&lt;/span&gt;&lt;/div&gt;" style="shape=parallelogram;perimeter=parallelogramPerimeter;whiteSpace=wrap;html=1;fixedSize=1;" parent="1" vertex="1">
          <mxGeometry x="348.25" y="120" width="154.5" height="70" as="geometry" />
        </mxCell>
        <mxCell id="dtfhshL-D1OWp4Bj5PZu-44" style="edgeStyle=orthogonalEdgeStyle;rounded=0;orthogonalLoop=1;jettySize=auto;html=1;exitX=0.5;exitY=1;exitDx=0;exitDy=0;entryX=0.5;entryY=0;entryDx=0;entryDy=0;" parent="1" source="dtfhshL-D1OWp4Bj5PZu-41" target="feJUysVBaDyxndWQx8B6-2" edge="1">
          <mxGeometry relative="1" as="geometry">
            <mxPoint x="425" y="910" as="targetPoint" />
          </mxGeometry>
        </mxCell>
        <mxCell id="dtfhshL-D1OWp4Bj5PZu-41" value="&lt;blockquote style=&quot;margin: 0 0 0 40px; border: none; padding: 0px;&quot;&gt;&lt;span style=&quot;background-color: initial;&quot;&gt;SILAHKAN PILIH MENU&lt;/span&gt;&lt;/blockquote&gt;&lt;blockquote style=&quot;margin: 0 0 0 40px; border: none; padding: 0px;&quot;&gt;&lt;span style=&quot;background-color: initial;&quot;&gt;1. Masukkan Data Hewan&lt;br&gt;&lt;/span&gt;&lt;span style=&quot;background-color: initial;&quot;&gt;2. Tampilkan Data Hewan&lt;br&gt;&lt;/span&gt;&lt;span style=&quot;background-color: initial;&quot;&gt;3. Perbarui Data Hewan&lt;br&gt;&lt;/span&gt;&lt;span style=&quot;background-color: initial;&quot;&gt;4. Hapus Data Hewan&lt;/span&gt;&lt;div&gt;5. Keluar&lt;/div&gt;&lt;/blockquote&gt;" style="shape=parallelogram;perimeter=parallelogramPerimeter;whiteSpace=wrap;html=1;fixedSize=1;align=left;" parent="1" vertex="1">
          <mxGeometry x="327" y="450" width="197" height="100" as="geometry" />
        </mxCell>
        <mxCell id="dtfhshL-D1OWp4Bj5PZu-46" style="edgeStyle=orthogonalEdgeStyle;rounded=0;orthogonalLoop=1;jettySize=auto;html=1;exitX=0.5;exitY=1;exitDx=0;exitDy=0;entryX=0.5;entryY=0;entryDx=0;entryDy=0;" parent="1" source="dtfhshL-D1OWp4Bj5PZu-43" target="dtfhshL-D1OWp4Bj5PZu-45" edge="1">
          <mxGeometry relative="1" as="geometry" />
        </mxCell>
        <mxCell id="dtfhshL-D1OWp4Bj5PZu-67" style="edgeStyle=orthogonalEdgeStyle;rounded=0;orthogonalLoop=1;jettySize=auto;html=1;exitX=1;exitY=0.5;exitDx=0;exitDy=0;entryX=0;entryY=0.5;entryDx=0;entryDy=0;" parent="1" source="dtfhshL-D1OWp4Bj5PZu-43" target="dtfhshL-D1OWp4Bj5PZu-70" edge="1">
          <mxGeometry relative="1" as="geometry">
            <mxPoint x="530" y="1020" as="targetPoint" />
          </mxGeometry>
        </mxCell>
        <mxCell id="dtfhshL-D1OWp4Bj5PZu-43" value="1" style="rhombus;whiteSpace=wrap;html=1;" parent="1" vertex="1">
          <mxGeometry x="385" y="780" width="80" height="80" as="geometry" />
        </mxCell>
        <mxCell id="dtfhshL-D1OWp4Bj5PZu-48" style="edgeStyle=orthogonalEdgeStyle;rounded=0;orthogonalLoop=1;jettySize=auto;html=1;exitX=0.5;exitY=1;exitDx=0;exitDy=0;entryX=0.5;entryY=0;entryDx=0;entryDy=0;" parent="1" source="dtfhshL-D1OWp4Bj5PZu-45" target="dtfhshL-D1OWp4Bj5PZu-47" edge="1">
          <mxGeometry relative="1" as="geometry" />
        </mxCell>
        <mxCell id="dtfhshL-D1OWp4Bj5PZu-83" style="edgeStyle=orthogonalEdgeStyle;rounded=0;orthogonalLoop=1;jettySize=auto;html=1;exitX=1;exitY=0.5;exitDx=0;exitDy=0;entryX=0;entryY=0.5;entryDx=0;entryDy=0;" parent="1" source="dtfhshL-D1OWp4Bj5PZu-45" target="dtfhshL-D1OWp4Bj5PZu-82" edge="1">
          <mxGeometry relative="1" as="geometry" />
        </mxCell>
        <mxCell id="dtfhshL-D1OWp4Bj5PZu-45" value="2" style="rhombus;whiteSpace=wrap;html=1;" parent="1" vertex="1">
          <mxGeometry x="385" y="940" width="80" height="80" as="geometry" />
        </mxCell>
        <mxCell id="dtfhshL-D1OWp4Bj5PZu-89" style="edgeStyle=orthogonalEdgeStyle;rounded=0;orthogonalLoop=1;jettySize=auto;html=1;exitX=1;exitY=0.5;exitDx=0;exitDy=0;entryX=0;entryY=0.5;entryDx=0;entryDy=0;" parent="1" source="dtfhshL-D1OWp4Bj5PZu-47" target="dtfhshL-D1OWp4Bj5PZu-88" edge="1">
          <mxGeometry relative="1" as="geometry" />
        </mxCell>
        <mxCell id="yA7HZ91JMAjYLebNQA0N-61" style="edgeStyle=elbowEdgeStyle;rounded=0;orthogonalLoop=1;jettySize=auto;html=1;exitX=0.5;exitY=1;exitDx=0;exitDy=0;entryX=0.5;entryY=0;entryDx=0;entryDy=0;" parent="1" source="dtfhshL-D1OWp4Bj5PZu-47" target="yA7HZ91JMAjYLebNQA0N-60" edge="1">
          <mxGeometry relative="1" as="geometry" />
        </mxCell>
        <mxCell id="dtfhshL-D1OWp4Bj5PZu-47" value="3" style="rhombus;whiteSpace=wrap;html=1;" parent="1" vertex="1">
          <mxGeometry x="385.5" y="1100" width="80" height="80" as="geometry" />
        </mxCell>
        <mxCell id="dtfhshL-D1OWp4Bj5PZu-52" style="edgeStyle=orthogonalEdgeStyle;rounded=0;orthogonalLoop=1;jettySize=auto;html=1;exitX=0.5;exitY=1;exitDx=0;exitDy=0;entryX=0.5;entryY=0;entryDx=0;entryDy=0;" parent="1" source="dtfhshL-D1OWp4Bj5PZu-49" target="dtfhshL-D1OWp4Bj5PZu-51" edge="1">
          <mxGeometry relative="1" as="geometry" />
        </mxCell>
        <mxCell id="dtfhshL-D1OWp4Bj5PZu-99" style="edgeStyle=orthogonalEdgeStyle;rounded=0;orthogonalLoop=1;jettySize=auto;html=1;exitX=1;exitY=0.5;exitDx=0;exitDy=0;entryX=0;entryY=0.5;entryDx=0;entryDy=0;" parent="1" source="dtfhshL-D1OWp4Bj5PZu-49" target="dtfhshL-D1OWp4Bj5PZu-98" edge="1">
          <mxGeometry relative="1" as="geometry" />
        </mxCell>
        <mxCell id="dtfhshL-D1OWp4Bj5PZu-49" value="5" style="rhombus;whiteSpace=wrap;html=1;" parent="1" vertex="1">
          <mxGeometry x="385" y="1440" width="80" height="80" as="geometry" />
        </mxCell>
        <mxCell id="yA7HZ91JMAjYLebNQA0N-7" style="edgeStyle=elbowEdgeStyle;rounded=0;orthogonalLoop=1;jettySize=auto;elbow=vertical;html=1;exitX=0.5;exitY=1;exitDx=0;exitDy=0;entryX=0.5;entryY=0;entryDx=0;entryDy=0;" parent="1" source="dtfhshL-D1OWp4Bj5PZu-51" target="dtfhshL-D1OWp4Bj5PZu-62" edge="1">
          <mxGeometry relative="1" as="geometry" />
        </mxCell>
        <mxCell id="dtfhshL-D1OWp4Bj5PZu-51" value="else" style="rhombus;whiteSpace=wrap;html=1;" parent="1" vertex="1">
          <mxGeometry x="385.5" y="1650" width="80" height="80" as="geometry" />
        </mxCell>
        <mxCell id="dtfhshL-D1OWp4Bj5PZu-55" style="edgeStyle=orthogonalEdgeStyle;rounded=0;orthogonalLoop=1;jettySize=auto;html=1;exitX=0.5;exitY=1;exitDx=0;exitDy=0;entryX=0.5;entryY=0;entryDx=0;entryDy=0;" parent="1" source="dtfhshL-D1OWp4Bj5PZu-53" target="dtfhshL-D1OWp4Bj5PZu-41" edge="1">
          <mxGeometry relative="1" as="geometry" />
        </mxCell>
        <mxCell id="F_siATPpNtPt2_4caLO3-2" style="edgeStyle=orthogonalEdgeStyle;rounded=0;orthogonalLoop=1;jettySize=auto;html=1;exitX=1;exitY=0.5;exitDx=0;exitDy=0;entryX=0;entryY=0.5;entryDx=0;entryDy=0;" parent="1" source="dtfhshL-D1OWp4Bj5PZu-53" target="F_siATPpNtPt2_4caLO3-1" edge="1">
          <mxGeometry relative="1" as="geometry" />
        </mxCell>
        <mxCell id="dtfhshL-D1OWp4Bj5PZu-53" value="sebagai admin" style="rhombus;whiteSpace=wrap;html=1;" parent="1" vertex="1">
          <mxGeometry x="385" y="270" width="80" height="80" as="geometry" />
        </mxCell>
        <mxCell id="dtfhshL-D1OWp4Bj5PZu-56" value="ya" style="text;html=1;align=center;verticalAlign=middle;resizable=0;points=[];autosize=1;strokeColor=none;fillColor=none;" parent="1" vertex="1">
          <mxGeometry x="385" y="350" width="40" height="30" as="geometry" />
        </mxCell>
        <mxCell id="dtfhshL-D1OWp4Bj5PZu-57" value="tidak" style="text;html=1;align=center;verticalAlign=middle;resizable=0;points=[];autosize=1;strokeColor=none;fillColor=none;" parent="1" vertex="1">
          <mxGeometry x="455.5" y="280" width="50" height="30" as="geometry" />
        </mxCell>
        <mxCell id="dtfhshL-D1OWp4Bj5PZu-58" value="" style="endArrow=classic;html=1;rounded=0;exitX=1;exitY=1;exitDx=0;exitDy=0;" parent="1" source="dtfhshL-D1OWp4Bj5PZu-41" edge="1">
          <mxGeometry width="50" height="50" relative="1" as="geometry">
            <mxPoint x="400" y="740" as="sourcePoint" />
            <mxPoint x="550" y="541" as="targetPoint" />
          </mxGeometry>
        </mxCell>
        <mxCell id="aMdvFnou5WmcNLCMXQcz-4" style="edgeStyle=orthogonalEdgeStyle;rounded=0;orthogonalLoop=1;jettySize=auto;html=1;exitX=0;exitY=0.5;exitDx=0;exitDy=0;entryX=0;entryY=0.5;entryDx=0;entryDy=0;" edge="1" parent="1" source="dtfhshL-D1OWp4Bj5PZu-62" target="dtfhshL-D1OWp4Bj5PZu-41">
          <mxGeometry relative="1" as="geometry">
            <Array as="points">
              <mxPoint x="240" y="1915" />
              <mxPoint x="240" y="500" />
            </Array>
          </mxGeometry>
        </mxCell>
        <mxCell id="dtfhshL-D1OWp4Bj5PZu-62" value="Input Anda Invalid" style="shape=parallelogram;perimeter=parallelogramPerimeter;whiteSpace=wrap;html=1;fixedSize=1;" parent="1" vertex="1">
          <mxGeometry x="365" y="1880" width="120" height="70" as="geometry" />
        </mxCell>
        <mxCell id="dtfhshL-D1OWp4Bj5PZu-66" value="end" style="ellipse;whiteSpace=wrap;html=1;" parent="1" vertex="1">
          <mxGeometry x="370" y="2000" width="110" height="80" as="geometry" />
        </mxCell>
        <mxCell id="dtfhshL-D1OWp4Bj5PZu-69" value="tidak" style="text;html=1;align=center;verticalAlign=middle;resizable=0;points=[];autosize=1;strokeColor=none;fillColor=none;" parent="1" vertex="1">
          <mxGeometry x="375" y="860" width="50" height="30" as="geometry" />
        </mxCell>
        <mxCell id="dtfhshL-D1OWp4Bj5PZu-73" style="edgeStyle=orthogonalEdgeStyle;rounded=0;orthogonalLoop=1;jettySize=auto;html=1;exitX=1;exitY=0.5;exitDx=0;exitDy=0;entryX=0;entryY=0.5;entryDx=0;entryDy=0;" parent="1" source="dtfhshL-D1OWp4Bj5PZu-70" target="dtfhshL-D1OWp4Bj5PZu-72" edge="1">
          <mxGeometry relative="1" as="geometry" />
        </mxCell>
        <mxCell id="dtfhshL-D1OWp4Bj5PZu-70" value="Input nama&lt;div&gt;&amp;nbsp;hewan&lt;/div&gt;" style="shape=parallelogram;perimeter=parallelogramPerimeter;whiteSpace=wrap;html=1;fixedSize=1;" parent="1" vertex="1">
          <mxGeometry x="540" y="790" width="120" height="60" as="geometry" />
        </mxCell>
        <mxCell id="dtfhshL-D1OWp4Bj5PZu-71" value="" style="endArrow=classic;html=1;rounded=0;entryX=0;entryY=0;entryDx=0;entryDy=0;" parent="1" target="dtfhshL-D1OWp4Bj5PZu-70" edge="1">
          <mxGeometry width="50" height="50" relative="1" as="geometry">
            <mxPoint x="520" y="799" as="sourcePoint" />
            <mxPoint x="570" y="990" as="targetPoint" />
          </mxGeometry>
        </mxCell>
        <mxCell id="dtfhshL-D1OWp4Bj5PZu-75" style="edgeStyle=orthogonalEdgeStyle;rounded=0;orthogonalLoop=1;jettySize=auto;html=1;exitX=1;exitY=0.5;exitDx=0;exitDy=0;entryX=0;entryY=0.5;entryDx=0;entryDy=0;" parent="1" source="dtfhshL-D1OWp4Bj5PZu-72" target="dtfhshL-D1OWp4Bj5PZu-74" edge="1">
          <mxGeometry relative="1" as="geometry" />
        </mxCell>
        <mxCell id="dtfhshL-D1OWp4Bj5PZu-72" value="input jumlah&lt;div&gt;total hewan&lt;/div&gt;" style="shape=parallelogram;perimeter=parallelogramPerimeter;whiteSpace=wrap;html=1;fixedSize=1;" parent="1" vertex="1">
          <mxGeometry x="703" y="790" width="120" height="60" as="geometry" />
        </mxCell>
        <mxCell id="dtfhshL-D1OWp4Bj5PZu-79" style="edgeStyle=orthogonalEdgeStyle;rounded=0;orthogonalLoop=1;jettySize=auto;html=1;exitX=1;exitY=0.5;exitDx=0;exitDy=0;entryX=0;entryY=0.5;entryDx=0;entryDy=0;" parent="1" source="dtfhshL-D1OWp4Bj5PZu-74" target="dtfhshL-D1OWp4Bj5PZu-78" edge="1">
          <mxGeometry relative="1" as="geometry" />
        </mxCell>
        <mxCell id="dtfhshL-D1OWp4Bj5PZu-74" value="input jumlah&amp;nbsp;&lt;div&gt;pejantan&lt;/div&gt;" style="shape=parallelogram;perimeter=parallelogramPerimeter;whiteSpace=wrap;html=1;fixedSize=1;" parent="1" vertex="1">
          <mxGeometry x="870" y="790" width="120" height="60" as="geometry" />
        </mxCell>
        <mxCell id="dtfhshL-D1OWp4Bj5PZu-76" value="" style="endArrow=classic;html=1;rounded=0;entryX=0;entryY=0;entryDx=0;entryDy=0;" parent="1" target="dtfhshL-D1OWp4Bj5PZu-72" edge="1">
          <mxGeometry width="50" height="50" relative="1" as="geometry">
            <mxPoint x="680" y="799" as="sourcePoint" />
            <mxPoint x="580" y="1090" as="targetPoint" />
          </mxGeometry>
        </mxCell>
        <mxCell id="dtfhshL-D1OWp4Bj5PZu-77" value="" style="endArrow=classic;html=1;rounded=0;entryX=0;entryY=0;entryDx=0;entryDy=0;" parent="1" target="dtfhshL-D1OWp4Bj5PZu-74" edge="1">
          <mxGeometry width="50" height="50" relative="1" as="geometry">
            <mxPoint x="850" y="799" as="sourcePoint" />
            <mxPoint x="580" y="1090" as="targetPoint" />
          </mxGeometry>
        </mxCell>
        <mxCell id="yA7HZ91JMAjYLebNQA0N-47" style="edgeStyle=elbowEdgeStyle;rounded=0;orthogonalLoop=1;jettySize=auto;html=1;exitX=1;exitY=0.5;exitDx=0;exitDy=0;" parent="1" source="dtfhshL-D1OWp4Bj5PZu-78" edge="1">
          <mxGeometry relative="1" as="geometry">
            <mxPoint x="1300" y="820" as="targetPoint" />
          </mxGeometry>
        </mxCell>
        <mxCell id="dtfhshL-D1OWp4Bj5PZu-78" value="input jumlah&lt;div&gt;betina&lt;/div&gt;" style="shape=parallelogram;perimeter=parallelogramPerimeter;whiteSpace=wrap;html=1;fixedSize=1;" parent="1" vertex="1">
          <mxGeometry x="1040" y="790" width="120" height="60" as="geometry" />
        </mxCell>
        <mxCell id="dtfhshL-D1OWp4Bj5PZu-80" value="" style="endArrow=classic;html=1;rounded=0;entryX=0;entryY=0;entryDx=0;entryDy=0;" parent="1" target="dtfhshL-D1OWp4Bj5PZu-78" edge="1">
          <mxGeometry width="50" height="50" relative="1" as="geometry">
            <mxPoint x="1020" y="800" as="sourcePoint" />
            <mxPoint x="580" y="1090" as="targetPoint" />
          </mxGeometry>
        </mxCell>
        <mxCell id="yA7HZ91JMAjYLebNQA0N-12" style="edgeStyle=elbowEdgeStyle;rounded=0;orthogonalLoop=1;jettySize=auto;elbow=vertical;html=1;exitX=1;exitY=0.5;exitDx=0;exitDy=0;" parent="1" source="dtfhshL-D1OWp4Bj5PZu-82" edge="1">
          <mxGeometry relative="1" as="geometry">
            <mxPoint x="1300" y="980" as="targetPoint" />
          </mxGeometry>
        </mxCell>
        <mxCell id="yA7HZ91JMAjYLebNQA0N-59" style="edgeStyle=elbowEdgeStyle;rounded=0;orthogonalLoop=1;jettySize=auto;html=1;exitX=1;exitY=1;exitDx=0;exitDy=0;" parent="1" source="dtfhshL-D1OWp4Bj5PZu-82" edge="1">
          <mxGeometry relative="1" as="geometry">
            <mxPoint x="730" y="1007.363636363636" as="targetPoint" />
          </mxGeometry>
        </mxCell>
        <mxCell id="dtfhshL-D1OWp4Bj5PZu-82" value="Tampilkan data&lt;div&gt;&amp;nbsp;hewan yang&lt;/div&gt;&lt;div&gt;sudah dimasukkan&lt;/div&gt;" style="shape=parallelogram;perimeter=parallelogramPerimeter;whiteSpace=wrap;html=1;fixedSize=1;" parent="1" vertex="1">
          <mxGeometry x="540" y="945" width="163" height="70" as="geometry" />
        </mxCell>
        <mxCell id="dtfhshL-D1OWp4Bj5PZu-86" value="ya" style="text;html=1;align=center;verticalAlign=middle;resizable=0;points=[];autosize=1;strokeColor=none;fillColor=none;" parent="1" vertex="1">
          <mxGeometry x="457.5" y="945" width="40" height="30" as="geometry" />
        </mxCell>
        <mxCell id="dtfhshL-D1OWp4Bj5PZu-87" value="tidak" style="text;html=1;align=center;verticalAlign=middle;resizable=0;points=[];autosize=1;strokeColor=none;fillColor=none;" parent="1" vertex="1">
          <mxGeometry x="375" y="1020" width="50" height="30" as="geometry" />
        </mxCell>
        <mxCell id="dtfhshL-D1OWp4Bj5PZu-106" style="edgeStyle=orthogonalEdgeStyle;rounded=0;orthogonalLoop=1;jettySize=auto;html=1;exitX=1;exitY=0.5;exitDx=0;exitDy=0;entryX=0;entryY=0.5;entryDx=0;entryDy=0;" parent="1" source="dtfhshL-D1OWp4Bj5PZu-88" target="dtfhshL-D1OWp4Bj5PZu-104" edge="1">
          <mxGeometry relative="1" as="geometry" />
        </mxCell>
        <mxCell id="dtfhshL-D1OWp4Bj5PZu-88" value="masukkan nama&lt;div&gt;hewan yang ingin diubah&lt;/div&gt;&lt;div&gt;datanya&lt;/div&gt;" style="shape=parallelogram;perimeter=parallelogramPerimeter;whiteSpace=wrap;html=1;fixedSize=1;" parent="1" vertex="1">
          <mxGeometry x="538.5" y="1100" width="176" height="80" as="geometry" />
        </mxCell>
        <mxCell id="dtfhshL-D1OWp4Bj5PZu-90" value="ya" style="text;html=1;align=center;verticalAlign=middle;resizable=0;points=[];autosize=1;strokeColor=none;fillColor=none;" parent="1" vertex="1">
          <mxGeometry x="457.5" y="1110" width="40" height="30" as="geometry" />
        </mxCell>
        <mxCell id="dtfhshL-D1OWp4Bj5PZu-91" value="tidak" style="text;html=1;align=center;verticalAlign=middle;resizable=0;points=[];autosize=1;strokeColor=none;fillColor=none;" parent="1" vertex="1">
          <mxGeometry x="375" y="1180" width="50" height="30" as="geometry" />
        </mxCell>
        <mxCell id="dtfhshL-D1OWp4Bj5PZu-93" value="" style="endArrow=classic;html=1;rounded=0;exitX=1;exitY=1;exitDx=0;exitDy=0;" parent="1" source="dtfhshL-D1OWp4Bj5PZu-62" edge="1">
          <mxGeometry width="50" height="50" relative="1" as="geometry">
            <mxPoint x="530" y="1440" as="sourcePoint" />
            <mxPoint x="500" y="1940" as="targetPoint" />
          </mxGeometry>
        </mxCell>
        <mxCell id="yA7HZ91JMAjYLebNQA0N-17" style="edgeStyle=elbowEdgeStyle;rounded=0;orthogonalLoop=1;jettySize=auto;elbow=vertical;html=1;exitX=1;exitY=1;exitDx=0;exitDy=0;" parent="1" source="dtfhshL-D1OWp4Bj5PZu-98" edge="1">
          <mxGeometry relative="1" as="geometry">
            <mxPoint x="740" y="1504" as="targetPoint" />
          </mxGeometry>
        </mxCell>
        <mxCell id="yA7HZ91JMAjYLebNQA0N-112" style="edgeStyle=elbowEdgeStyle;rounded=0;orthogonalLoop=1;jettySize=auto;html=1;exitX=1;exitY=0.5;exitDx=0;exitDy=0;" parent="1" source="dtfhshL-D1OWp4Bj5PZu-98" edge="1">
          <mxGeometry relative="1" as="geometry">
            <mxPoint x="1560" y="1480" as="targetPoint" />
          </mxGeometry>
        </mxCell>
        <mxCell id="dtfhshL-D1OWp4Bj5PZu-98" value="Anda Telah Keluar dari&lt;div&gt;Sistem Pendataan&lt;/div&gt;&lt;div&gt;Hewan&lt;/div&gt;" style="shape=parallelogram;perimeter=parallelogramPerimeter;whiteSpace=wrap;html=1;fixedSize=1;" parent="1" vertex="1">
          <mxGeometry x="535" y="1450" width="173" height="60" as="geometry" />
        </mxCell>
        <mxCell id="dtfhshL-D1OWp4Bj5PZu-107" style="edgeStyle=orthogonalEdgeStyle;rounded=0;orthogonalLoop=1;jettySize=auto;html=1;exitX=1;exitY=0.5;exitDx=0;exitDy=0;entryX=0;entryY=0.5;entryDx=0;entryDy=0;" parent="1" source="dtfhshL-D1OWp4Bj5PZu-104" target="dtfhshL-D1OWp4Bj5PZu-105" edge="1">
          <mxGeometry relative="1" as="geometry" />
        </mxCell>
        <mxCell id="dtfhshL-D1OWp4Bj5PZu-104" value="masukkan data&lt;div&gt;&amp;nbsp;yang ingin diubah&lt;/div&gt;" style="shape=parallelogram;perimeter=parallelogramPerimeter;whiteSpace=wrap;html=1;fixedSize=1;" parent="1" vertex="1">
          <mxGeometry x="780" y="1110" width="120" height="60" as="geometry" />
        </mxCell>
        <mxCell id="yA7HZ91JMAjYLebNQA0N-13" style="edgeStyle=elbowEdgeStyle;rounded=0;orthogonalLoop=1;jettySize=auto;elbow=vertical;html=1;exitX=1;exitY=0.5;exitDx=0;exitDy=0;" parent="1" source="dtfhshL-D1OWp4Bj5PZu-105" edge="1">
          <mxGeometry relative="1" as="geometry">
            <mxPoint x="1300" y="1140" as="targetPoint" />
          </mxGeometry>
        </mxCell>
        <mxCell id="dtfhshL-D1OWp4Bj5PZu-105" value="masukkan data&lt;div&gt;baru&lt;/div&gt;" style="shape=parallelogram;perimeter=parallelogramPerimeter;whiteSpace=wrap;html=1;fixedSize=1;" parent="1" vertex="1">
          <mxGeometry x="980" y="1110" width="120" height="60" as="geometry" />
        </mxCell>
        <mxCell id="dtfhshL-D1OWp4Bj5PZu-109" value="" style="endArrow=classic;html=1;rounded=0;entryX=0;entryY=0;entryDx=0;entryDy=0;" parent="1" target="dtfhshL-D1OWp4Bj5PZu-88" edge="1">
          <mxGeometry width="50" height="50" relative="1" as="geometry">
            <mxPoint x="520" y="1108" as="sourcePoint" />
            <mxPoint x="640" y="1190" as="targetPoint" />
          </mxGeometry>
        </mxCell>
        <mxCell id="dtfhshL-D1OWp4Bj5PZu-110" value="" style="endArrow=classic;html=1;rounded=0;entryX=0;entryY=0;entryDx=0;entryDy=0;" parent="1" target="dtfhshL-D1OWp4Bj5PZu-104" edge="1">
          <mxGeometry width="50" height="50" relative="1" as="geometry">
            <mxPoint x="750" y="1120" as="sourcePoint" />
            <mxPoint x="640" y="1490" as="targetPoint" />
          </mxGeometry>
        </mxCell>
        <mxCell id="dtfhshL-D1OWp4Bj5PZu-111" value="" style="endArrow=classic;html=1;rounded=0;entryX=0;entryY=0;entryDx=0;entryDy=0;" parent="1" target="dtfhshL-D1OWp4Bj5PZu-105" edge="1">
          <mxGeometry width="50" height="50" relative="1" as="geometry">
            <mxPoint x="950" y="1120" as="sourcePoint" />
            <mxPoint x="640" y="1390" as="targetPoint" />
          </mxGeometry>
        </mxCell>
        <mxCell id="dtfhshL-D1OWp4Bj5PZu-116" value="ya" style="text;html=1;align=center;verticalAlign=middle;resizable=0;points=[];autosize=1;strokeColor=none;fillColor=none;" parent="1" vertex="1">
          <mxGeometry x="457.5" y="1450" width="40" height="30" as="geometry" />
        </mxCell>
        <mxCell id="dtfhshL-D1OWp4Bj5PZu-117" value="tidak" style="text;html=1;align=center;verticalAlign=middle;resizable=0;points=[];autosize=1;strokeColor=none;fillColor=none;" parent="1" vertex="1">
          <mxGeometry x="375" y="1520" width="50" height="30" as="geometry" />
        </mxCell>
        <mxCell id="feJUysVBaDyxndWQx8B6-3" style="edgeStyle=orthogonalEdgeStyle;rounded=0;orthogonalLoop=1;jettySize=auto;html=1;exitX=0.5;exitY=1;exitDx=0;exitDy=0;entryX=0.5;entryY=0;entryDx=0;entryDy=0;" parent="1" source="feJUysVBaDyxndWQx8B6-2" target="dtfhshL-D1OWp4Bj5PZu-43" edge="1">
          <mxGeometry relative="1" as="geometry" />
        </mxCell>
        <mxCell id="feJUysVBaDyxndWQx8B6-2" value="input pilihan" style="shape=parallelogram;perimeter=parallelogramPerimeter;whiteSpace=wrap;html=1;fixedSize=1;" parent="1" vertex="1">
          <mxGeometry x="365" y="630" width="120" height="60" as="geometry" />
        </mxCell>
        <mxCell id="feJUysVBaDyxndWQx8B6-4" value="" style="endArrow=classic;html=1;rounded=0;entryX=0;entryY=0;entryDx=0;entryDy=0;" parent="1" target="feJUysVBaDyxndWQx8B6-2" edge="1">
          <mxGeometry width="50" height="50" relative="1" as="geometry">
            <mxPoint x="340" y="640" as="sourcePoint" />
            <mxPoint x="680" y="1000" as="targetPoint" />
          </mxGeometry>
        </mxCell>
        <mxCell id="F_siATPpNtPt2_4caLO3-8" style="edgeStyle=orthogonalEdgeStyle;rounded=0;orthogonalLoop=1;jettySize=auto;html=1;exitX=1;exitY=0.5;exitDx=0;exitDy=0;entryX=0;entryY=0.5;entryDx=0;entryDy=0;" parent="1" source="F_siATPpNtPt2_4caLO3-1" target="F_siATPpNtPt2_4caLO3-6" edge="1">
          <mxGeometry relative="1" as="geometry" />
        </mxCell>
        <mxCell id="F_siATPpNtPt2_4caLO3-1" value="&lt;blockquote style=&quot;margin: 0 0 0 40px; border: none; padding: 0px;&quot;&gt;1. Tampilkan data Hewan&lt;div&gt;2. Keluar&lt;/div&gt;&lt;/blockquote&gt;" style="shape=parallelogram;perimeter=parallelogramPerimeter;whiteSpace=wrap;html=1;fixedSize=1;align=left;" parent="1" vertex="1">
          <mxGeometry x="520" y="280" width="213" height="60" as="geometry" />
        </mxCell>
        <mxCell id="F_siATPpNtPt2_4caLO3-3" value="" style="endArrow=classic;html=1;rounded=0;exitX=1;exitY=1;exitDx=0;exitDy=0;" parent="1" source="F_siATPpNtPt2_4caLO3-1" edge="1">
          <mxGeometry width="50" height="50" relative="1" as="geometry">
            <mxPoint x="630" y="850" as="sourcePoint" />
            <mxPoint x="760" y="335" as="targetPoint" />
          </mxGeometry>
        </mxCell>
        <mxCell id="F_siATPpNtPt2_4caLO3-11" style="edgeStyle=orthogonalEdgeStyle;rounded=0;orthogonalLoop=1;jettySize=auto;html=1;exitX=0.5;exitY=1;exitDx=0;exitDy=0;entryX=0.5;entryY=0;entryDx=0;entryDy=0;" parent="1" source="F_siATPpNtPt2_4caLO3-5" target="F_siATPpNtPt2_4caLO3-10" edge="1">
          <mxGeometry relative="1" as="geometry" />
        </mxCell>
        <mxCell id="yA7HZ91JMAjYLebNQA0N-57" style="edgeStyle=elbowEdgeStyle;rounded=0;orthogonalLoop=1;jettySize=auto;html=1;exitX=1;exitY=0.5;exitDx=0;exitDy=0;entryX=0;entryY=0.5;entryDx=0;entryDy=0;" parent="1" source="F_siATPpNtPt2_4caLO3-5" target="F_siATPpNtPt2_4caLO3-13" edge="1">
          <mxGeometry relative="1" as="geometry" />
        </mxCell>
        <mxCell id="F_siATPpNtPt2_4caLO3-5" value="1" style="rhombus;whiteSpace=wrap;html=1;" parent="1" vertex="1">
          <mxGeometry x="970" y="270" width="80" height="80" as="geometry" />
        </mxCell>
        <mxCell id="F_siATPpNtPt2_4caLO3-9" style="edgeStyle=orthogonalEdgeStyle;rounded=0;orthogonalLoop=1;jettySize=auto;html=1;exitX=1;exitY=0.5;exitDx=0;exitDy=0;entryX=0;entryY=0.5;entryDx=0;entryDy=0;" parent="1" source="F_siATPpNtPt2_4caLO3-6" target="F_siATPpNtPt2_4caLO3-5" edge="1">
          <mxGeometry relative="1" as="geometry" />
        </mxCell>
        <mxCell id="F_siATPpNtPt2_4caLO3-6" value="input pilihan" style="shape=parallelogram;perimeter=parallelogramPerimeter;whiteSpace=wrap;html=1;fixedSize=1;" parent="1" vertex="1">
          <mxGeometry x="810" y="280" width="120" height="60" as="geometry" />
        </mxCell>
        <mxCell id="F_siATPpNtPt2_4caLO3-7" value="" style="endArrow=classic;html=1;rounded=0;entryX=0;entryY=0;entryDx=0;entryDy=0;" parent="1" target="F_siATPpNtPt2_4caLO3-6" edge="1">
          <mxGeometry width="50" height="50" relative="1" as="geometry">
            <mxPoint x="790" y="289" as="sourcePoint" />
            <mxPoint x="680" y="800" as="targetPoint" />
          </mxGeometry>
        </mxCell>
        <mxCell id="F_siATPpNtPt2_4caLO3-17" style="edgeStyle=orthogonalEdgeStyle;rounded=0;orthogonalLoop=1;jettySize=auto;html=1;exitX=1;exitY=0.5;exitDx=0;exitDy=0;entryX=0;entryY=0.5;entryDx=0;entryDy=0;" parent="1" source="F_siATPpNtPt2_4caLO3-10" target="F_siATPpNtPt2_4caLO3-16" edge="1">
          <mxGeometry relative="1" as="geometry" />
        </mxCell>
        <mxCell id="F_siATPpNtPt2_4caLO3-10" value="2" style="rhombus;whiteSpace=wrap;html=1;" parent="1" vertex="1">
          <mxGeometry x="970" y="390" width="80" height="80" as="geometry" />
        </mxCell>
        <mxCell id="F_siATPpNtPt2_4caLO3-12" value="tidak" style="text;html=1;align=center;verticalAlign=middle;resizable=0;points=[];autosize=1;strokeColor=none;fillColor=none;" parent="1" vertex="1">
          <mxGeometry x="960" y="350" width="50" height="30" as="geometry" />
        </mxCell>
        <mxCell id="yA7HZ91JMAjYLebNQA0N-51" style="edgeStyle=elbowEdgeStyle;rounded=0;orthogonalLoop=1;jettySize=auto;html=1;exitX=1;exitY=0.5;exitDx=0;exitDy=0;entryX=1;entryY=0.5;entryDx=0;entryDy=0;" parent="1" source="F_siATPpNtPt2_4caLO3-13" target="dtfhshL-D1OWp4Bj5PZu-38" edge="1">
          <mxGeometry relative="1" as="geometry">
            <Array as="points">
              <mxPoint x="1260" y="660" />
            </Array>
          </mxGeometry>
        </mxCell>
        <mxCell id="F_siATPpNtPt2_4caLO3-13" value="Tampilkan data hewan" style="shape=parallelogram;perimeter=parallelogramPerimeter;whiteSpace=wrap;html=1;fixedSize=1;" parent="1" vertex="1">
          <mxGeometry x="1110" y="280" width="120" height="60" as="geometry" />
        </mxCell>
        <mxCell id="F_siATPpNtPt2_4caLO3-14" value="" style="endArrow=classic;html=1;rounded=0;exitX=1;exitY=1;exitDx=0;exitDy=0;" parent="1" source="F_siATPpNtPt2_4caLO3-13" edge="1">
          <mxGeometry width="50" height="50" relative="1" as="geometry">
            <mxPoint x="630" y="850" as="sourcePoint" />
            <mxPoint x="1260" y="331" as="targetPoint" />
            <Array as="points" />
          </mxGeometry>
        </mxCell>
        <mxCell id="yA7HZ91JMAjYLebNQA0N-101" style="edgeStyle=elbowEdgeStyle;rounded=0;orthogonalLoop=1;jettySize=auto;html=1;exitX=1;exitY=0.5;exitDx=0;exitDy=0;" parent="1" source="F_siATPpNtPt2_4caLO3-16" edge="1">
          <mxGeometry relative="1" as="geometry">
            <mxPoint x="1300" y="-60" as="targetPoint" />
            <Array as="points">
              <mxPoint x="1300" y="180" />
            </Array>
          </mxGeometry>
        </mxCell>
        <mxCell id="F_siATPpNtPt2_4caLO3-16" value="Program Selesai." style="shape=parallelogram;perimeter=parallelogramPerimeter;whiteSpace=wrap;html=1;fixedSize=1;" parent="1" vertex="1">
          <mxGeometry x="1110" y="395" width="120" height="70" as="geometry" />
        </mxCell>
        <mxCell id="F_siATPpNtPt2_4caLO3-19" value="" style="endArrow=classic;html=1;rounded=0;exitX=1;exitY=1;exitDx=0;exitDy=0;" parent="1" source="F_siATPpNtPt2_4caLO3-16" edge="1">
          <mxGeometry width="50" height="50" relative="1" as="geometry">
            <mxPoint x="630" y="850" as="sourcePoint" />
            <mxPoint x="1260" y="455" as="targetPoint" />
          </mxGeometry>
        </mxCell>
        <mxCell id="yA7HZ91JMAjYLebNQA0N-29" style="edgeStyle=elbowEdgeStyle;rounded=0;orthogonalLoop=1;jettySize=auto;html=1;exitX=1;exitY=0.5;exitDx=0;exitDy=0;entryX=0;entryY=0.5;entryDx=0;entryDy=0;" parent="1" source="C1_euyFeqPWgibXLm8NW-5" target="yA7HZ91JMAjYLebNQA0N-69" edge="1">
          <mxGeometry relative="1" as="geometry">
            <mxPoint x="700" y="-260" as="targetPoint" />
          </mxGeometry>
        </mxCell>
        <mxCell id="yA7HZ91JMAjYLebNQA0N-41" style="edgeStyle=elbowEdgeStyle;rounded=0;orthogonalLoop=1;jettySize=auto;html=1;exitX=0.5;exitY=0;exitDx=0;exitDy=0;entryX=0.5;entryY=1;entryDx=0;entryDy=0;" parent="1" source="C1_euyFeqPWgibXLm8NW-5" target="yA7HZ91JMAjYLebNQA0N-40" edge="1">
          <mxGeometry relative="1" as="geometry" />
        </mxCell>
        <mxCell id="C1_euyFeqPWgibXLm8NW-5" value="2" style="rhombus;whiteSpace=wrap;html=1;" parent="1" vertex="1">
          <mxGeometry x="550" y="-300" width="80" height="80" as="geometry" />
        </mxCell>
        <mxCell id="yA7HZ91JMAjYLebNQA0N-6" value="" style="endArrow=classic;html=1;rounded=0;elbow=vertical;exitX=1;exitY=1;exitDx=0;exitDy=0;" parent="1" source="yA7HZ91JMAjYLebNQA0N-24" edge="1">
          <mxGeometry width="50" height="50" relative="1" as="geometry">
            <mxPoint x="468.3571428571431" y="121.42857142857133" as="sourcePoint" />
            <mxPoint x="510" y="-681" as="targetPoint" />
          </mxGeometry>
        </mxCell>
        <mxCell id="yA7HZ91JMAjYLebNQA0N-38" style="edgeStyle=elbowEdgeStyle;rounded=0;orthogonalLoop=1;jettySize=auto;html=1;exitX=0.5;exitY=1;exitDx=0;exitDy=0;entryX=0.5;entryY=0;entryDx=0;entryDy=0;" parent="1" source="yA7HZ91JMAjYLebNQA0N-24" target="yA7HZ91JMAjYLebNQA0N-36" edge="1">
          <mxGeometry relative="1" as="geometry" />
        </mxCell>
        <mxCell id="yA7HZ91JMAjYLebNQA0N-24" value="&lt;div&gt;Pilih&lt;/div&gt;1. Admin&lt;div&gt;2. Pengguna&lt;/div&gt;&lt;div&gt;&lt;br&gt;&lt;/div&gt;&lt;div&gt;0. Keluar&lt;/div&gt;" style="shape=parallelogram;perimeter=parallelogramPerimeter;whiteSpace=wrap;html=1;fixedSize=1;" parent="1" vertex="1">
          <mxGeometry x="365" y="-750" width="120" height="80" as="geometry" />
        </mxCell>
        <mxCell id="dtfhshL-D1OWp4Bj5PZu-15" value="1" style="rhombus;whiteSpace=wrap;html=1;" parent="1" vertex="1">
          <mxGeometry x="385" y="-300" width="80" height="80" as="geometry" />
        </mxCell>
        <mxCell id="yA7HZ91JMAjYLebNQA0N-42" style="edgeStyle=elbowEdgeStyle;rounded=0;orthogonalLoop=1;jettySize=auto;html=1;exitX=0.5;exitY=1;exitDx=0;exitDy=0;entryX=0.5;entryY=0;entryDx=0;entryDy=0;" parent="1" source="yA7HZ91JMAjYLebNQA0N-36" target="yA7HZ91JMAjYLebNQA0N-39" edge="1">
          <mxGeometry relative="1" as="geometry" />
        </mxCell>
        <mxCell id="yA7HZ91JMAjYLebNQA0N-36" value="input pilihan&lt;div&gt;(angka)&lt;/div&gt;" style="shape=parallelogram;perimeter=parallelogramPerimeter;whiteSpace=wrap;html=1;fixedSize=1;" parent="1" vertex="1">
          <mxGeometry x="365" y="-600" width="120" height="60" as="geometry" />
        </mxCell>
        <mxCell id="yA7HZ91JMAjYLebNQA0N-43" style="edgeStyle=elbowEdgeStyle;rounded=0;orthogonalLoop=1;jettySize=auto;html=1;exitX=0.5;exitY=1;exitDx=0;exitDy=0;entryX=0.5;entryY=0;entryDx=0;entryDy=0;" parent="1" source="yA7HZ91JMAjYLebNQA0N-39" target="dtfhshL-D1OWp4Bj5PZu-15" edge="1">
          <mxGeometry relative="1" as="geometry" />
        </mxCell>
        <mxCell id="yA7HZ91JMAjYLebNQA0N-45" style="edgeStyle=elbowEdgeStyle;rounded=0;orthogonalLoop=1;jettySize=auto;html=1;exitX=0;exitY=0.5;exitDx=0;exitDy=0;entryX=0;entryY=0.5;entryDx=0;entryDy=0;" parent="1" source="yA7HZ91JMAjYLebNQA0N-39" target="dtfhshL-D1OWp4Bj5PZu-66" edge="1">
          <mxGeometry relative="1" as="geometry">
            <mxPoint x="-130" y="2020" as="targetPoint" />
            <Array as="points">
              <mxPoint x="80" y="1040" />
            </Array>
          </mxGeometry>
        </mxCell>
        <mxCell id="yA7HZ91JMAjYLebNQA0N-39" value="0" style="rhombus;whiteSpace=wrap;html=1;" parent="1" vertex="1">
          <mxGeometry x="385" y="-450" width="80" height="80" as="geometry" />
        </mxCell>
        <mxCell id="yA7HZ91JMAjYLebNQA0N-68" style="edgeStyle=elbowEdgeStyle;rounded=0;orthogonalLoop=1;jettySize=auto;html=1;exitX=0.5;exitY=0;exitDx=0;exitDy=0;" parent="1" source="yA7HZ91JMAjYLebNQA0N-40" edge="1">
          <mxGeometry relative="1" as="geometry">
            <mxPoint x="589.5454545454545" y="-710" as="targetPoint" />
          </mxGeometry>
        </mxCell>
        <mxCell id="yA7HZ91JMAjYLebNQA0N-40" value="else" style="rhombus;whiteSpace=wrap;html=1;" parent="1" vertex="1">
          <mxGeometry x="550" y="-440" width="80" height="80" as="geometry" />
        </mxCell>
        <mxCell id="yA7HZ91JMAjYLebNQA0N-44" value="tidak" style="text;html=1;align=center;verticalAlign=middle;resizable=0;points=[];autosize=1;strokeColor=none;fillColor=none;" parent="1" vertex="1">
          <mxGeometry x="375" y="-370" width="50" height="30" as="geometry" />
        </mxCell>
        <mxCell id="yA7HZ91JMAjYLebNQA0N-46" value="ya" style="text;html=1;align=center;verticalAlign=middle;resizable=0;points=[];autosize=1;strokeColor=none;fillColor=none;" parent="1" vertex="1">
          <mxGeometry x="457.5" y="790" width="40" height="30" as="geometry" />
        </mxCell>
        <mxCell id="yA7HZ91JMAjYLebNQA0N-50" value="ya" style="text;html=1;align=center;verticalAlign=middle;resizable=0;points=[];autosize=1;strokeColor=none;fillColor=none;" parent="1" vertex="1">
          <mxGeometry x="348.25" y="-450" width="40" height="30" as="geometry" />
        </mxCell>
        <mxCell id="yA7HZ91JMAjYLebNQA0N-52" value="" style="endArrow=classic;html=1;rounded=0;entryX=0;entryY=0;entryDx=0;entryDy=0;" parent="1" target="yA7HZ91JMAjYLebNQA0N-36" edge="1">
          <mxGeometry width="50" height="50" relative="1" as="geometry">
            <mxPoint x="340" y="-591" as="sourcePoint" />
            <mxPoint x="790" y="90" as="targetPoint" />
          </mxGeometry>
        </mxCell>
        <mxCell id="F_siATPpNtPt2_4caLO3-23" value="ya" style="text;html=1;align=center;verticalAlign=middle;resizable=0;points=[];autosize=1;strokeColor=none;fillColor=none;" parent="1" vertex="1">
          <mxGeometry x="1040" y="280" width="40" height="30" as="geometry" />
        </mxCell>
        <mxCell id="yA7HZ91JMAjYLebNQA0N-64" style="edgeStyle=elbowEdgeStyle;rounded=0;orthogonalLoop=1;jettySize=auto;html=1;exitX=1;exitY=0.5;exitDx=0;exitDy=0;entryX=0;entryY=0.5;entryDx=0;entryDy=0;" parent="1" source="yA7HZ91JMAjYLebNQA0N-60" target="yA7HZ91JMAjYLebNQA0N-62" edge="1">
          <mxGeometry relative="1" as="geometry" />
        </mxCell>
        <mxCell id="yA7HZ91JMAjYLebNQA0N-67" style="edgeStyle=elbowEdgeStyle;rounded=0;orthogonalLoop=1;jettySize=auto;html=1;exitX=0.5;exitY=1;exitDx=0;exitDy=0;entryX=0.5;entryY=0;entryDx=0;entryDy=0;" parent="1" source="yA7HZ91JMAjYLebNQA0N-60" target="dtfhshL-D1OWp4Bj5PZu-49" edge="1">
          <mxGeometry relative="1" as="geometry" />
        </mxCell>
        <mxCell id="yA7HZ91JMAjYLebNQA0N-60" value="4" style="rhombus;whiteSpace=wrap;html=1;" parent="1" vertex="1">
          <mxGeometry x="385" y="1270" width="80" height="80" as="geometry" />
        </mxCell>
        <mxCell id="yA7HZ91JMAjYLebNQA0N-65" style="edgeStyle=elbowEdgeStyle;rounded=0;orthogonalLoop=1;jettySize=auto;html=1;exitX=1;exitY=0.5;exitDx=0;exitDy=0;entryX=0;entryY=0.5;entryDx=0;entryDy=0;" parent="1" source="yA7HZ91JMAjYLebNQA0N-62" target="yA7HZ91JMAjYLebNQA0N-63" edge="1">
          <mxGeometry relative="1" as="geometry" />
        </mxCell>
        <mxCell id="yA7HZ91JMAjYLebNQA0N-62" value="pilih data&amp;nbsp;&lt;div&gt;yang ingin dihapus&lt;/div&gt;" style="shape=parallelogram;perimeter=parallelogramPerimeter;whiteSpace=wrap;html=1;fixedSize=1;" parent="1" vertex="1">
          <mxGeometry x="551.5" y="1280" width="140" height="60" as="geometry" />
        </mxCell>
        <mxCell id="yA7HZ91JMAjYLebNQA0N-110" style="edgeStyle=elbowEdgeStyle;rounded=0;orthogonalLoop=1;jettySize=auto;html=1;exitX=1;exitY=0.5;exitDx=0;exitDy=0;" parent="1" source="yA7HZ91JMAjYLebNQA0N-63" edge="1">
          <mxGeometry relative="1" as="geometry">
            <mxPoint x="1300" y="1309" as="targetPoint" />
          </mxGeometry>
        </mxCell>
        <mxCell id="yA7HZ91JMAjYLebNQA0N-63" value="hapus data" style="shape=parallelogram;perimeter=parallelogramPerimeter;whiteSpace=wrap;html=1;fixedSize=1;" parent="1" vertex="1">
          <mxGeometry x="780" y="1280" width="120" height="60" as="geometry" />
        </mxCell>
        <mxCell id="yA7HZ91JMAjYLebNQA0N-73" style="edgeStyle=elbowEdgeStyle;rounded=0;orthogonalLoop=1;jettySize=auto;html=1;exitX=1;exitY=0.5;exitDx=0;exitDy=0;entryX=0;entryY=0.5;entryDx=0;entryDy=0;" parent="1" source="yA7HZ91JMAjYLebNQA0N-69" target="yA7HZ91JMAjYLebNQA0N-71" edge="1">
          <mxGeometry relative="1" as="geometry" />
        </mxCell>
        <mxCell id="yA7HZ91JMAjYLebNQA0N-69" value="Pilih&lt;div&gt;1. Register&lt;/div&gt;&lt;div&gt;2. Login&lt;/div&gt;&lt;div&gt;3. Keluar&lt;/div&gt;" style="shape=parallelogram;perimeter=parallelogramPerimeter;whiteSpace=wrap;html=1;fixedSize=1;" parent="1" vertex="1">
          <mxGeometry x="714.5" y="-290" width="120" height="60" as="geometry" />
        </mxCell>
        <mxCell id="yA7HZ91JMAjYLebNQA0N-75" style="edgeStyle=elbowEdgeStyle;rounded=0;orthogonalLoop=1;jettySize=auto;html=1;exitX=1;exitY=0.5;exitDx=0;exitDy=0;entryX=0;entryY=0.5;entryDx=0;entryDy=0;" parent="1" source="yA7HZ91JMAjYLebNQA0N-70" target="yA7HZ91JMAjYLebNQA0N-72" edge="1">
          <mxGeometry relative="1" as="geometry" />
        </mxCell>
        <mxCell id="yA7HZ91JMAjYLebNQA0N-97" style="edgeStyle=elbowEdgeStyle;rounded=0;orthogonalLoop=1;jettySize=auto;html=1;exitX=0.5;exitY=1;exitDx=0;exitDy=0;entryX=1;entryY=0.5;entryDx=0;entryDy=0;" parent="1" source="yA7HZ91JMAjYLebNQA0N-70" target="dtfhshL-D1OWp4Bj5PZu-8" edge="1">
          <mxGeometry relative="1" as="geometry">
            <Array as="points">
              <mxPoint x="1110" y="-140" />
            </Array>
          </mxGeometry>
        </mxCell>
        <mxCell id="yA7HZ91JMAjYLebNQA0N-70" value="2" style="rhombus;whiteSpace=wrap;html=1;" parent="1" vertex="1">
          <mxGeometry x="1070" y="-300" width="80" height="80" as="geometry" />
        </mxCell>
        <mxCell id="yA7HZ91JMAjYLebNQA0N-74" style="edgeStyle=elbowEdgeStyle;rounded=0;orthogonalLoop=1;jettySize=auto;html=1;exitX=1;exitY=0.5;exitDx=0;exitDy=0;entryX=0;entryY=0.5;entryDx=0;entryDy=0;" parent="1" source="yA7HZ91JMAjYLebNQA0N-71" target="yA7HZ91JMAjYLebNQA0N-70" edge="1">
          <mxGeometry relative="1" as="geometry" />
        </mxCell>
        <mxCell id="yA7HZ91JMAjYLebNQA0N-96" style="edgeStyle=elbowEdgeStyle;rounded=0;orthogonalLoop=1;jettySize=auto;html=1;exitX=0.5;exitY=1;exitDx=0;exitDy=0;entryX=0.5;entryY=0;entryDx=0;entryDy=0;" parent="1" source="yA7HZ91JMAjYLebNQA0N-71" target="dtfhshL-D1OWp4Bj5PZu-21" edge="1">
          <mxGeometry relative="1" as="geometry" />
        </mxCell>
        <mxCell id="yA7HZ91JMAjYLebNQA0N-71" value="1" style="rhombus;whiteSpace=wrap;html=1;" parent="1" vertex="1">
          <mxGeometry x="910" y="-300" width="80" height="80" as="geometry" />
        </mxCell>
        <mxCell id="yA7HZ91JMAjYLebNQA0N-87" style="edgeStyle=elbowEdgeStyle;rounded=0;orthogonalLoop=1;jettySize=auto;html=1;exitX=0.5;exitY=0;exitDx=0;exitDy=0;" parent="1" source="yA7HZ91JMAjYLebNQA0N-72" edge="1">
          <mxGeometry relative="1" as="geometry">
            <mxPoint x="1274.9999999999995" y="-710" as="targetPoint" />
          </mxGeometry>
        </mxCell>
        <mxCell id="yA7HZ91JMAjYLebNQA0N-90" style="edgeStyle=elbowEdgeStyle;rounded=0;orthogonalLoop=1;jettySize=auto;html=1;exitX=1;exitY=0.5;exitDx=0;exitDy=0;entryX=0;entryY=0.5;entryDx=0;entryDy=0;" parent="1" source="yA7HZ91JMAjYLebNQA0N-72" target="yA7HZ91JMAjYLebNQA0N-88" edge="1">
          <mxGeometry relative="1" as="geometry" />
        </mxCell>
        <mxCell id="yA7HZ91JMAjYLebNQA0N-72" value="3" style="rhombus;whiteSpace=wrap;html=1;" parent="1" vertex="1">
          <mxGeometry x="1235" y="-300" width="80" height="80" as="geometry" />
        </mxCell>
        <mxCell id="yA7HZ91JMAjYLebNQA0N-77" value="ya" style="text;html=1;align=center;verticalAlign=middle;resizable=0;points=[];autosize=1;strokeColor=none;fillColor=none;" parent="1" vertex="1">
          <mxGeometry x="620" y="-282" width="40" height="30" as="geometry" />
        </mxCell>
        <mxCell id="yA7HZ91JMAjYLebNQA0N-78" value="tidak" style="text;html=1;align=center;verticalAlign=middle;resizable=0;points=[];autosize=1;strokeColor=none;fillColor=none;" parent="1" vertex="1">
          <mxGeometry x="540" y="-330" width="50" height="30" as="geometry" />
        </mxCell>
        <mxCell id="yA7HZ91JMAjYLebNQA0N-79" value="tidak" style="text;html=1;align=center;verticalAlign=middle;resizable=0;points=[];autosize=1;strokeColor=none;fillColor=none;" parent="1" vertex="1">
          <mxGeometry x="980" y="-292" width="50" height="30" as="geometry" />
        </mxCell>
        <mxCell id="yA7HZ91JMAjYLebNQA0N-83" value="ya" style="text;html=1;align=center;verticalAlign=middle;resizable=0;points=[];autosize=1;strokeColor=none;fillColor=none;" parent="1" vertex="1">
          <mxGeometry x="910" y="-232" width="40" height="30" as="geometry" />
        </mxCell>
        <mxCell id="yA7HZ91JMAjYLebNQA0N-84" value="tidak" style="text;html=1;align=center;verticalAlign=middle;resizable=0;points=[];autosize=1;strokeColor=none;fillColor=none;" parent="1" vertex="1">
          <mxGeometry x="1150" y="-290" width="50" height="30" as="geometry" />
        </mxCell>
        <mxCell id="yA7HZ91JMAjYLebNQA0N-92" style="edgeStyle=elbowEdgeStyle;rounded=0;orthogonalLoop=1;jettySize=auto;html=1;exitX=0.5;exitY=0;exitDx=0;exitDy=0;entryX=0.5;entryY=1;entryDx=0;entryDy=0;" parent="1" source="yA7HZ91JMAjYLebNQA0N-88" target="yA7HZ91JMAjYLebNQA0N-91" edge="1">
          <mxGeometry relative="1" as="geometry" />
        </mxCell>
        <mxCell id="yA7HZ91JMAjYLebNQA0N-88" value="else" style="rhombus;whiteSpace=wrap;html=1;" parent="1" vertex="1">
          <mxGeometry x="1370" y="-300" width="80" height="80" as="geometry" />
        </mxCell>
        <mxCell id="yA7HZ91JMAjYLebNQA0N-94" style="edgeStyle=elbowEdgeStyle;rounded=0;orthogonalLoop=1;jettySize=auto;html=1;exitX=1;exitY=1;exitDx=0;exitDy=0;" parent="1" source="yA7HZ91JMAjYLebNQA0N-91" edge="1">
          <mxGeometry relative="1" as="geometry">
            <mxPoint x="1490" y="-39" as="targetPoint" />
          </mxGeometry>
        </mxCell>
        <mxCell id="yA7HZ91JMAjYLebNQA0N-100" style="edgeStyle=elbowEdgeStyle;rounded=0;orthogonalLoop=1;jettySize=auto;html=1;exitX=0;exitY=0.5;exitDx=0;exitDy=0;entryX=0.5;entryY=1;entryDx=0;entryDy=0;" parent="1" source="yA7HZ91JMAjYLebNQA0N-91" target="yA7HZ91JMAjYLebNQA0N-69" edge="1">
          <mxGeometry relative="1" as="geometry">
            <Array as="points">
              <mxPoint x="775" y="-150" />
            </Array>
          </mxGeometry>
        </mxCell>
        <mxCell id="yA7HZ91JMAjYLebNQA0N-91" value="Pilihan Invalid" style="shape=parallelogram;perimeter=parallelogramPerimeter;whiteSpace=wrap;html=1;fixedSize=1;" parent="1" vertex="1">
          <mxGeometry x="1350" y="-90" width="120" height="60" as="geometry" />
        </mxCell>
        <mxCell id="yA7HZ91JMAjYLebNQA0N-95" value="ya" style="text;html=1;align=center;verticalAlign=middle;resizable=0;points=[];autosize=1;strokeColor=none;fillColor=none;" parent="1" vertex="1">
          <mxGeometry x="1070" y="-220" width="40" height="30" as="geometry" />
        </mxCell>
        <mxCell id="yA7HZ91JMAjYLebNQA0N-102" value="ya" style="text;html=1;align=center;verticalAlign=middle;resizable=0;points=[];autosize=1;strokeColor=none;fillColor=none;" parent="1" vertex="1">
          <mxGeometry x="1270" y="-330" width="40" height="30" as="geometry" />
        </mxCell>
        <mxCell id="yA7HZ91JMAjYLebNQA0N-103" value="tidak" style="text;html=1;align=center;verticalAlign=middle;resizable=0;points=[];autosize=1;strokeColor=none;fillColor=none;" parent="1" vertex="1">
          <mxGeometry x="1310" y="-262" width="50" height="30" as="geometry" />
        </mxCell>
        <mxCell id="yA7HZ91JMAjYLebNQA0N-111" value="" style="endArrow=classic;html=1;rounded=0;edgeStyle=elbowEdgeStyle;entryX=1;entryY=0.5;entryDx=0;entryDy=0;" parent="1" target="dtfhshL-D1OWp4Bj5PZu-41" edge="1">
          <mxGeometry width="50" height="50" relative="1" as="geometry">
            <mxPoint x="1300" y="1310" as="sourcePoint" />
            <mxPoint x="1300" y="650" as="targetPoint" />
            <Array as="points">
              <mxPoint x="1300" y="940" />
            </Array>
          </mxGeometry>
        </mxCell>
        <mxCell id="yA7HZ91JMAjYLebNQA0N-114" value="" style="endArrow=classic;html=1;rounded=0;edgeStyle=elbowEdgeStyle;entryX=1;entryY=0.5;entryDx=0;entryDy=0;" parent="1" target="yA7HZ91JMAjYLebNQA0N-24" edge="1">
          <mxGeometry width="50" height="50" relative="1" as="geometry">
            <mxPoint x="1560" y="1480" as="sourcePoint" />
            <mxPoint x="1560" y="-720" as="targetPoint" />
            <Array as="points">
              <mxPoint x="1560" y="530" />
            </Array>
          </mxGeometry>
        </mxCell>
      </root>
    </mxGraphModel>
  </diagram>
</mxfile>
